<svg xmlns="http://www.w3.org/2000/svg" xmlns:xlink="http://www.w3.org/1999/xlink" width="1000px" height="500px" viewBox="0 0 1000 500" zoomAndPan="disable" preserveAspectRatio="none">
<rect style="opacity:0.69; fill:#001733;" width="1000" height="500"/>
<g>
	<rect x="25" y="472.222" style="opacity:0.8;fill:#060F2A;" width="25" height="27.778"/>
	<rect x="100" y="472.222" style="opacity:0.8;fill:#060F2A;" width="25" height="27.778"/>
	<rect x="125" y="472.222" style="opacity:0.8;fill:#060F2A;" width="25" height="27.778"/>
	<rect x="175" y="472.222" style="opacity:0.8;fill:#060F2A;" width="25" height="27.778"/>
	<rect x="200" y="472.222" style="opacity:0.4;fill:#060F2A;" width="25" height="27.778"/>
	<rect x="225" y="472.222" style="opacity:0.8;fill:#060F2A;" width="25" height="27.778"/>
	<rect x="250" y="472.222" style="opacity:0.8;fill:#060F2A;" width="25" height="27.778"/>
	<rect x="500" y="472.222" style="opacity:0.8;fill:#060F2A;" width="25" height="27.778"/>
	<rect x="525" y="472.222" style="opacity:0.4;fill:#060F2A;" width="25" height="27.778"/>
	<rect x="700" y="472.222" style="opacity:0.8;fill:#060F2A;" width="25" height="27.778"/>
	<rect x="725" y="472.222" style="opacity:0.4;fill:#060F2A;" width="25" height="27.778"/>
	<rect y="444.444" style="opacity:0.8;fill:#060F2A;" width="25" height="27.778"/>
	<rect x="75" y="444.444" style="opacity:0.8;fill:#060F2A;" width="25" height="27.778"/>
	<rect x="100" y="444.444" style="opacity:0.8;fill:#060F2A;" width="25" height="27.778"/>
	<rect x="125" y="444.444" style="opacity:0.4;fill:#060F2A;" width="25" height="27.778"/>
	<rect x="200" y="444.444" style="opacity:0.8;fill:#060F2A;" width="25" height="27.778"/>
	<rect x="225" y="444.444" style="opacity:0.4;fill:#060F2A;" width="25" height="27.778"/>
	<rect x="300" y="444.444" style="opacity:0.4;fill:#060F2A;" width="25" height="27.778"/>
	<rect x="375" y="444.444" style="opacity:0.4;fill:#060F2A;" width="25" height="27.778"/>
	<rect x="400" y="444.444" style="opacity:0.8;fill:#060F2A;" width="25" height="27.778"/>
	<rect x="425" y="444.444" style="opacity:0.8;fill:#060F2A;" width="25" height="27.778"/>
	<rect x="475" y="444.444" style="opacity:0.8;fill:#060F2A;" width="25" height="27.778"/>
	<rect x="500" y="444.444" style="opacity:0.8;fill:#060F2A;" width="25" height="27.778"/>
	<rect x="525" y="444.444" style="opacity:0.4;fill:#060F2A;" width="25" height="27.778"/>
	<rect x="600" y="444.444" style="opacity:0.8;fill:#060F2A;" width="25" height="27.778"/>
	<rect x="625" y="444.444" style="opacity:0.8;fill:#060F2A;" width="25" height="27.778"/>
	<rect x="700" y="444.444" style="opacity:0.4;fill:#060F2A;" width="25" height="27.778"/>
	<rect x="725" y="444.444" style="opacity:0.8;fill:#060F2A;" width="25" height="27.778"/>
	<rect y="416.667" style="opacity:0.4;fill:#060F2A;" width="25" height="27.778"/>
	<rect x="50" y="416.667" style="opacity:0.8;fill:#060F2A;" width="25" height="27.778"/>
	<rect x="75" y="416.667" style="opacity:0.4;fill:#060F2A;" width="25" height="27.778"/>
	<rect x="100" y="416.667" style="opacity:0.8;fill:#060F2A;" width="25" height="27.778"/>
	<rect x="150" y="416.667" style="opacity:0.8;fill:#060F2A;" width="25" height="27.778"/>
	<rect x="250" y="416.667" style="opacity:0.8;fill:#060F2A;" width="25" height="27.778"/>
	<rect x="300" y="416.667" style="opacity:0.8;fill:#060F2A;" width="25" height="27.778"/>
	<rect x="400" y="416.667" style="opacity:0.4;fill:#060F2A;" width="25" height="27.778"/>
	<rect x="450" y="416.667" style="opacity:0.8;fill:#060F2A;" width="25" height="27.778"/>
	<rect x="475" y="416.667" style="opacity:0.4;fill:#060F2A;" width="25" height="27.778"/>
	<rect x="500" y="416.667" style="opacity:0.8;fill:#060F2A;" width="25" height="27.778"/>
	<rect x="550" y="416.667" style="opacity:0.8;fill:#060F2A;" width="25" height="27.778"/>
	<rect x="600" y="416.667" style="opacity:0.4;fill:#060F2A;" width="25" height="27.778"/>
	<rect x="675" y="416.667" style="opacity:0.8;fill:#060F2A;" width="25" height="27.778"/>
	<rect x="725" y="416.667" style="opacity:0.8;fill:#060F2A;" width="25" height="27.778"/>
	<rect y="388.889" style="opacity:0.8;fill:#060F2A;" width="25" height="27.778"/>
	<rect x="25" y="388.889" style="opacity:0.4;fill:#060F2A;" width="25" height="27.778"/>
	<rect x="125" y="388.889" style="opacity:0.8;fill:#060F2A;" width="25" height="27.778"/>
	<rect x="150" y="388.889" style="opacity:0.8;fill:#060F2A;" width="25" height="27.778"/>
	<rect x="175" y="388.889" style="opacity:0.8;fill:#060F2A;" width="25" height="27.778"/>
	<rect x="200" y="388.889" style="opacity:0.4;fill:#060F2A;" width="25" height="27.778"/>
	<rect x="250" y="388.889" style="opacity:0.4;fill:#060F2A;" width="25" height="27.778"/>
	<rect x="275" y="388.889" style="opacity:0.8;fill:#060F2A;" width="25" height="27.778"/>
	<rect x="325" y="388.889" style="opacity:0.4;fill:#060F2A;" width="25" height="27.778"/>
	<rect x="375" y="388.889" style="opacity:0.8;fill:#060F2A;" width="25" height="27.778"/>
	<rect x="425" y="388.889" style="opacity:0.8;fill:#060F2A;" width="25" height="27.778"/>
	<rect x="450" y="388.889" style="opacity:0.4;fill:#060F2A;" width="25" height="27.778"/>
	<rect x="475" y="388.889" style="opacity:0.4;fill:#060F2A;" width="25" height="27.778"/>
	<rect x="525" y="388.889" style="opacity:0.8;fill:#060F2A;" width="25" height="27.778"/>
	<rect x="550" y="388.889" style="opacity:0.4;fill:#060F2A;" width="25" height="27.778"/>
	<rect x="575" y="388.889" style="opacity:0.8;fill:#060F2A;" width="25" height="27.778"/>
	<rect x="675" y="388.889" style="opacity:0.8;fill:#060F2A;" width="25" height="27.778"/>
	<rect y="361.111" style="opacity:0.8;fill:#060F2A;" width="25" height="27.778"/>
	<rect x="25" y="361.111" style="opacity:0.4;fill:#060F2A;" width="25" height="27.778"/>
	<rect x="75" y="361.111" style="opacity:0.8;fill:#060F2A;" width="25" height="27.778"/>
	<rect x="150" y="361.111" style="opacity:0.8;fill:#060F2A;" width="25" height="27.778"/>
	<rect x="175" y="361.111" style="opacity:0.4;fill:#060F2A;" width="25" height="27.778"/>
	<rect x="200" y="361.111" style="opacity:0.8;fill:#060F2A;" width="25" height="27.778"/>
	<rect x="225" y="361.111" style="opacity:0.4;fill:#060F2A;" width="25" height="27.778"/>
	<rect x="275" y="361.111" style="opacity:0.8;fill:#060F2A;" width="25" height="27.778"/>
	<rect x="300" y="361.111" style="opacity:0.4;fill:#060F2A;" width="25" height="27.778"/>
	<rect x="325" y="361.111" style="opacity:0.8;fill:#060F2A;" width="25" height="27.778"/>
	<rect x="350" y="361.111" style="opacity:0.8;fill:#060F2A;" width="25" height="27.778"/>
	<rect x="400" y="361.111" style="opacity:0.8;fill:#060F2A;" width="25" height="27.778"/>
	<rect x="450" y="361.111" style="opacity:0.8;fill:#060F2A;" width="25" height="27.778"/>
	<rect x="475" y="361.111" style="opacity:0.4;fill:#060F2A;" width="25" height="27.778"/>
	<rect x="550" y="361.111" style="opacity:0.8;fill:#060F2A;" width="25" height="27.778"/>
	<rect x="700" y="361.111" style="opacity:0.8;fill:#060F2A;" width="25" height="27.778"/>
	<rect x="50" y="333.333" style="opacity:0.4;fill:#060F2A;" width="25" height="27.778"/>
	<rect x="125" y="333.333" style="opacity:0.8;fill:#060F2A;" width="25" height="27.778"/>
	<rect x="175" y="333.333" style="opacity:0.8;fill:#060F2A;" width="25" height="27.778"/>
	<rect x="200" y="333.333" style="opacity:0.4;fill:#060F2A;" width="25" height="27.778"/>
	<rect x="300" y="333.333" style="opacity:0.8;fill:#060F2A;" width="25" height="27.778"/>
	<rect x="325" y="333.333" style="opacity:0.4;fill:#060F2A;" width="25" height="27.778"/>
	<rect x="375" y="333.333" style="opacity:0.8;fill:#060F2A;" width="25" height="27.778"/>
	<rect x="400" y="333.333" style="opacity:0.4;fill:#060F2A;" width="25" height="27.778"/>
	<rect x="425" y="333.333" style="opacity:0.4;fill:#060F2A;" width="25" height="27.778"/>
	<rect x="450" y="333.333" style="opacity:0.8;fill:#060F2A;" width="25" height="27.778"/>
	<rect x="500" y="333.333" style="opacity:0.8;fill:#060F2A;" width="25" height="27.778"/>
	<rect x="600" y="333.333" style="opacity:0.8;fill:#060F2A;" width="25" height="27.778"/>
	<rect x="625" y="333.333" style="opacity:0.8;fill:#060F2A;" width="25" height="27.778"/>
	<rect x="650" y="333.333" style="opacity:0.4;fill:#060F2A;" width="25" height="27.778"/>
	<rect x="675" y="333.333" style="opacity:0.8;fill:#060F2A;" width="25" height="27.778"/>
	<rect x="725" y="333.333" style="opacity:0.8;fill:#060F2A;" width="25" height="27.778"/>
	<rect y="305.556" style="opacity:0.8;fill:#060F2A;" width="25" height="27.778"/>
	<rect x="25" y="305.556" style="opacity:0.4;fill:#060F2A;" width="25" height="27.778"/>
	<rect x="75" y="305.556" style="opacity:0.8;fill:#060F2A;" width="25" height="27.778"/>
	<rect x="100" y="305.556" style="opacity:0.4;fill:#060F2A;" width="25" height="27.778"/>
	<rect x="125" y="305.556" style="opacity:0.8;fill:#060F2A;" width="25" height="27.778"/>
	<rect x="200" y="305.556" style="opacity:0.8;fill:#060F2A;" width="25" height="27.778"/>
	<rect x="225" y="305.556" style="opacity:0.4;fill:#060F2A;" width="25" height="27.778"/>
	<rect x="300" y="305.556" style="opacity:0.4;fill:#060F2A;" width="25" height="27.778"/>
	<rect x="350" y="305.556" style="opacity:0.8;fill:#060F2A;" width="25" height="27.778"/>
	<rect x="375" y="305.556" style="opacity:0.4;fill:#060F2A;" width="25" height="27.778"/>
	<rect x="425" y="305.556" style="opacity:0.8;fill:#060F2A;" width="25" height="27.778"/>
	<rect x="475" y="305.556" style="opacity:0.4;fill:#060F2A;" width="25" height="27.778"/>
	<rect x="550" y="305.556" style="opacity:0.8;fill:#060F2A;" width="25" height="27.778"/>
	<rect x="575" y="305.556" style="opacity:0.4;fill:#060F2A;" width="25" height="27.778"/>
	<rect x="650" y="305.556" style="opacity:0.8;fill:#060F2A;" width="25" height="27.778"/>
	<rect y="277.778" style="opacity:0.4;fill:#060F2A;" width="25" height="27.778"/>
	<rect x="25" y="277.778" style="opacity:0.8;fill:#060F2A;" width="25" height="27.778"/>
	<rect x="50" y="277.778" style="opacity:0.4;fill:#060F2A;" width="25" height="27.778"/>
	<rect x="125" y="277.778" style="opacity:0.8;fill:#060F2A;" width="25" height="27.778"/>
	<rect x="175" y="277.778" style="opacity:0.8;fill:#060F2A;" width="25" height="27.778"/>
	<rect x="225" y="277.778" style="opacity:0.8;fill:#060F2A;" width="25" height="27.778"/>
	<rect x="250" y="277.778" style="opacity:0.8;fill:#060F2A;" width="25" height="27.778"/>
	<rect x="275" y="277.778" style="opacity:0.4;fill:#060F2A;" width="25" height="27.778"/>
	<rect x="325" y="277.778" style="opacity:0.8;fill:#060F2A;" width="25" height="27.778"/>
	<rect x="375" y="277.778" style="opacity:0.8;fill:#060F2A;" width="25" height="27.778"/>
	<rect x="425" y="277.778" style="opacity:0.4;fill:#060F2A;" width="25" height="27.778"/>
	<rect x="500" y="277.778" style="opacity:0.8;fill:#060F2A;" width="25" height="27.778"/>
	<rect x="525" y="277.778" style="opacity:0.4;fill:#060F2A;" width="25" height="27.778"/>
	<rect x="575" y="277.778" style="opacity:0.8;fill:#060F2A;" width="25" height="27.778"/>
	<rect x="625" y="277.778" style="opacity:0.8;fill:#060F2A;" width="25" height="27.778"/>
	<rect y="250" style="opacity:0.8;fill:#060F2A;" width="25" height="27.778"/>
	<rect x="25" y="250" style="opacity:0.4;fill:#060F2A;" width="25" height="27.778"/>
	<rect x="125" y="250" style="opacity:0.8;fill:#060F2A;" width="25" height="27.778"/>
	<rect x="175" y="250" style="opacity:0.8;fill:#060F2A;" width="25" height="27.778"/>
	<rect x="200" y="250" style="opacity:0.8;fill:#060F2A;" width="25" height="27.778"/>
	<rect x="250" y="250" style="opacity:0.4;fill:#060F2A;" width="25" height="27.778"/>
	<rect x="275" y="250" style="opacity:0.8;fill:#060F2A;" width="25" height="27.778"/>
	<rect x="325" y="250" style="opacity:0.8;fill:#060F2A;" width="25" height="27.778"/>
	<rect x="350" y="250" style="opacity:0.4;fill:#060F2A;" width="25" height="27.778"/>
	<rect x="450" y="250" style="opacity:0.8;fill:#060F2A;" width="25" height="27.778"/>
	<rect x="475" y="250" style="opacity:0.4;fill:#060F2A;" width="25" height="27.778"/>
	<rect x="500" y="250" style="opacity:0.8;fill:#060F2A;" width="25" height="27.778"/>
	<rect x="550" y="250" style="opacity:0.4;fill:#060F2A;" width="25" height="27.778"/>
	<rect x="600" y="250" style="opacity:0.4;fill:#060F2A;" width="25" height="27.778"/>
	<rect x="650" y="250" style="opacity:0.8;fill:#060F2A;" width="25" height="27.778"/>
	<rect y="222.222" style="opacity:0.8;fill:#060F2A;" width="25" height="27.778"/>
	<rect x="75" y="222.222" style="opacity:0.8;fill:#060F2A;" width="25" height="27.778"/>
	<rect x="100" y="222.222" style="opacity:0.4;fill:#060F2A;" width="25" height="27.778"/>
	<rect x="150" y="222.222" style="opacity:0.8;fill:#060F2A;" width="25" height="27.778"/>
	<rect x="200" y="222.222" style="opacity:0.8;fill:#060F2A;" width="25" height="27.778"/>
	<rect x="225" y="222.222" style="opacity:0.8;fill:#060F2A;" width="25" height="27.778"/>
	<rect x="275" y="222.222" style="opacity:0.8;fill:#060F2A;" width="25" height="27.778"/>
	<rect x="300" y="222.222" style="opacity:0.8;fill:#060F2A;" width="25" height="27.778"/>
	<rect x="375" y="222.222" style="opacity:0.8;fill:#060F2A;" width="25" height="27.778"/>
	<rect x="475" y="222.222" style="opacity:0.8;fill:#060F2A;" width="25" height="27.778"/>
	<rect x="525" y="222.222" style="opacity:0.4;fill:#060F2A;" width="25" height="27.778"/>
	<rect x="550" y="222.222" style="opacity:0.4;fill:#060F2A;" width="25" height="27.778"/>
	<rect x="575" y="222.222" style="opacity:0.8;fill:#060F2A;" width="25" height="27.778"/>
	<rect x="625" y="222.222" style="opacity:0.4;fill:#060F2A;" width="25" height="27.778"/>
	<rect x="650" y="222.222" style="opacity:0.4;fill:#060F2A;" width="25" height="27.778"/>
	<rect x="675" y="222.222" style="opacity:0.4;fill:#060F2A;" width="25" height="27.778"/>
	<rect x="25" y="194.444" style="opacity:0.4;fill:#060F2A;" width="25" height="27.778"/>
	<rect x="75" y="194.444" style="opacity:0.8;fill:#060F2A;" width="25" height="27.778"/>
	<rect x="125" y="194.444" style="opacity:0.8;fill:#060F2A;" width="25" height="27.778"/>
	<rect x="175" y="194.444" style="opacity:0.8;fill:#060F2A;" width="25" height="27.778"/>
	<rect x="200" y="194.444" style="opacity:0.8;fill:#060F2A;" width="25" height="27.778"/>
	<rect x="300" y="194.444" style="opacity:0.4;fill:#060F2A;" width="25" height="27.778"/>
	<rect x="275" y="166.667" style="opacity:0.4;fill:#060F2A;" width="25" height="27.778"/>
	<rect x="350" y="194.444" style="opacity:0.8;fill:#060F2A;" width="25" height="27.778"/>
	<rect x="375" y="194.444" style="opacity:0.4;fill:#060F2A;" width="25" height="27.778"/>
	<rect x="425" y="194.444" style="opacity:0.8;fill:#060F2A;" width="25" height="27.778"/>
	<rect x="500" y="194.444" style="opacity:0.8;fill:#060F2A;" width="25" height="27.778"/>
	<rect x="600" y="194.444" style="opacity:0.8;fill:#060F2A;" width="25" height="27.778"/>
	<rect x="625" y="194.444" style="opacity:0.8;fill:#060F2A;" width="25" height="27.778"/>
	<rect x="25" y="166.667" style="opacity:0.8;fill:#060F2A;" width="25" height="27.778"/>
	<rect x="50" y="166.667" style="opacity:0.8;fill:#060F2A;" width="25" height="27.778"/>
	<rect x="100" y="166.667" style="opacity:0.8;fill:#060F2A;" width="25" height="27.778"/>
	<rect x="125" y="166.667" style="opacity:0.4;fill:#060F2A;" width="25" height="27.778"/>
	<rect x="150" y="166.667" style="opacity:0.8;fill:#060F2A;" width="25" height="27.778"/>
	<rect x="200" y="166.667" style="opacity:0.8;fill:#060F2A;" width="25" height="27.778"/>
	<rect x="350" y="166.667" style="opacity:0.4;fill:#060F2A;" width="25" height="27.778"/>
	<rect x="350" y="138.889" style="opacity:0.8;fill:#060F2A;" width="25" height="27.778"/>
	<rect x="325" y="111.111" style="opacity:0.8;fill:#060F2A;" width="25" height="27.778"/>
	<rect x="400" y="166.667" style="opacity:0.8;fill:#060F2A;" width="25" height="27.778"/>
	<rect x="500" y="166.667" style="opacity:0.4;fill:#060F2A;" width="25" height="27.778"/>
	<rect x="525" y="138.889" style="opacity:0.4;fill:#060F2A;" width="25" height="27.778"/>
	<rect x="600" y="166.667" style="opacity:0.8;fill:#060F2A;" width="25" height="27.778"/>
	<rect x="700" y="166.667" style="opacity:0.4;fill:#060F2A;" width="25" height="27.778"/>
	<rect x="725" y="166.667" style="opacity:0.8;fill:#060F2A;" width="25" height="27.778"/>
	<rect x="25" y="83.333" style="opacity:0.8;fill:#060F2A;" width="25" height="27.778"/>
	<rect x="100" y="83.333" style="opacity:0.4;fill:#060F2A;" width="25" height="27.778"/>
	<rect x="125" y="83.333" style="opacity:0.8;fill:#060F2A;" width="25" height="27.778"/>
	<rect x="150" y="111.111" style="opacity:0.8;fill:#060F2A;" width="25" height="27.778"/>
	<rect x="200" y="83.333" style="opacity:0.8;fill:#060F2A;" width="25" height="27.778"/>
	<rect x="250" y="83.333" style="opacity:0.4;fill:#060F2A;" width="25" height="27.778"/>
	<rect x="250" y="111.111" style="opacity:0.8;fill:#060F2A;" width="25" height="27.778"/>
	<rect x="400" y="83.333" style="opacity:0.4;fill:#060F2A;" width="25" height="27.778"/>
	<rect x="425" y="83.333" style="opacity:0.8;fill:#060F2A;" width="25" height="27.778"/>
	<rect x="500" y="83.333" style="opacity:0.8;fill:#060F2A;" width="25" height="27.778"/>
	<rect x="525" y="111.111" style="opacity:0.4;fill:#060F2A;" width="25" height="27.778"/>
	<rect x="600" y="83.333" style="opacity:0.8;fill:#060F2A;" width="25" height="27.778"/>
	<rect x="700" y="83.333" style="opacity:0.8;fill:#060F2A;" width="25" height="27.778"/>
	<rect x="725" y="83.333" style="opacity:0.4;fill:#060F2A;" width="25" height="27.778"/>
	<rect x="50" y="55.556" style="opacity:0.8;fill:#060F2A;" width="25" height="27.778"/>
	<rect x="150" y="55.556" style="opacity:0.8;fill:#060F2A;" width="25" height="27.778"/>
	<rect x="175" y="55.556" style="opacity:0.4;fill:#060F2A;" width="25" height="27.778"/>
	<rect x="225" y="55.556" style="opacity:0.8;fill:#060F2A;" width="25" height="27.778"/>
	<rect x="300" y="55.556" style="opacity:0.4;fill:#060F2A;" width="25" height="27.778"/>
	<rect x="325" y="55.556" style="opacity:0.8;fill:#060F2A;" width="25" height="27.778"/>
	<rect x="400" y="55.556" style="opacity:0.4;fill:#060F2A;" width="25" height="27.778"/>
	<rect x="450" y="55.556" style="opacity:0.8;fill:#060F2A;" width="25" height="27.778"/>
	<rect x="575" y="55.556" style="opacity:0.8;fill:#060F2A;" width="25" height="27.778"/>
	<rect x="625" y="55.556" style="opacity:0.8;fill:#060F2A;" width="25" height="27.778"/>
	<rect x="75" y="27.778" style="opacity:0.4;fill:#060F2A;" width="25" height="27.778"/>
	<rect x="125" y="27.778" style="opacity:0.8;fill:#060F2A;" width="25" height="27.778"/>
	<rect x="225" y="27.778" style="opacity:0.4;fill:#060F2A;" width="25" height="27.778"/>
	<rect x="275" y="27.778" style="opacity:0.8;fill:#060F2A;" width="25" height="27.778"/>
	<rect x="300" y="27.778" style="opacity:0.8;fill:#060F2A;" width="25" height="27.778"/>
	<rect x="350" y="27.778" style="opacity:0.4;fill:#060F2A;" width="25" height="27.778"/>
	<rect x="375" y="27.778" style="opacity:0.8;fill:#060F2A;" width="25" height="27.778"/>
	<rect x="425" y="27.778" style="opacity:0.4;fill:#060F2A;" width="25" height="27.778"/>
	<rect x="475" y="27.778" style="opacity:0.4;fill:#060F2A;" width="25" height="27.778"/>
	<rect x="575" y="27.778" style="opacity:0.4;fill:#060F2A;" width="25" height="27.778"/>
	<rect x="700" y="27.778" style="opacity:0.4;fill:#060F2A;" width="25" height="27.778"/>
	<rect x="125" style="opacity:0.4;fill:#060F2A;" width="25" height="27.778"/>
	<rect x="150" style="opacity:0.8;fill:#060F2A;" width="25" height="27.778"/>
	<rect x="200" style="opacity:0.8;fill:#060F2A;" width="25" height="27.778"/>
	<rect x="225" style="opacity:0.4;fill:#060F2A;" width="25" height="27.778"/>
	<rect x="325" style="opacity:0.8;fill:#060F2A;" width="25" height="27.778"/>
	<rect x="350" style="opacity:0.8;fill:#060F2A;" width="25" height="27.778"/>
	<rect x="400" style="opacity:0.4;fill:#060F2A;" width="25" height="27.778"/>
	<rect x="425" style="opacity:0.8;fill:#060F2A;" width="25" height="27.778"/>
	<rect x="475" style="opacity:0.8;fill:#060F2A;" width="25" height="27.778"/>
	<rect x="525" style="opacity:0.8;fill:#060F2A;" width="25" height="27.778"/>
	<rect x="575" style="opacity:0.8;fill:#060F2A;" width="25" height="27.778"/>
	<rect x="650" style="opacity:0.8;fill:#060F2A;" width="25" height="27.778"/>
	<rect x="675" style="opacity:0.4;fill:#060F2A;" width="25" height="27.778"/>
	<rect x="725" style="opacity:0.8;fill:#060F2A;" width="25" height="27.778"/>
	
</g>
</svg>